<?xml version="1.0" ?><!DOCTYPE svg  PUBLIC '-//W3C//DTD SVG 1.0//EN'  'http://www.w3.org/TR/2001/REC-SVG-20010904/DTD/svg10.dtd'><svg enable-background="new 0 0 200 200" height="200px" id="Layer_1" version="1.0" viewBox="0 0 200 200" width="200px" xml:space="preserve" xmlns="http://www.w3.org/2000/svg" xmlns:xlink="http://www.w3.org/1999/xlink"><g id="New_Symbol"/><g id="New_Symbol_1_"/><g id="New_Symbol_1"/><g id="New_Symbol_9_2_"/><g id="New_Symbol_7"/><g id="New_Symbol_9_1_"/><g id="New_Symbol_9"/><g id="Nuevo_símbolo"/><g id="New_Symbol_10"/><g id="New_Symbol_12"/><g id="New_Symbol_14"/><g id="New_Symbol_15"/><g id="New_Symbol_16"/><g id="New_Symbol_17_1_"/><g id="New_Symbol_18"/><g id="New_Symbol_19"/><g id="New_Symbol_17"/><g><g><path d="M191.2,37.3l-9.4-14.1l-8.9,5.9l-3-4.4l-8.2,5.5l-5.7-8.5l-44.7,29.9l1.1,1.7l29.9-20l4.6,6.5L117.7,59H27.2    c-8.9,0-18.5,6.1-18.5,15.2v54.9c0,9.2,9.5,17.9,18.5,17.9h18.5v31.3L81.2,147H126c6.8,0,13.7-5.9,13.7-17.9V77.8l44.5-29.6    l0.9-0.6l-2.9-4.4L191.2,37.3z M181.2,26l7.2,10.8l-7.2,4.8L174,30.8L181.2,26z M143.9,32.2l11.5-7.7l4.6,6.8L148.5,39L143.9,32.2    z M137.7,129.1c0,8.1-4.1,15.9-11.7,15.9H80.5l-32.8,28.9V145H27.2c-7.8,0-16.5-7.9-16.5-15.9V74.2c0-7.9,8.6-13.2,16.5-13.2h87.5    L77.3,86H35.7v2h38.6L59.7,98.1l-0.8,0.7l2.3,3.2l-4.8,3H35.7v2h17.6l-2.5,2l4.9,7.1l-12,7.9h-8v2h9.1l0.1,0.1L45,126h-0.3v0.5    l12.1-8l4.6,6.8l10.4-6.9l2.1,3.4l63.8-42.7V129.1z M70.8,116.8l-8.7,5.8l-8.5-13.1l3.3-2.5h-0.2v0.5L62,104l6.7,9.9L70.8,116.8z     M74.7,119.1l-1.2-1.8l0,0l-10.8-16.1v0l-1.2-2.1L77.9,88h-0.2v0.5l91.5-61l13.2,19.6L74.7,119.1z"/></g></g></svg>