<?xml version="1.0" standalone="no"?>
<!DOCTYPE svg PUBLIC "-//W3C//DTD SVG 20010904//EN"
 "http://www.w3.org/TR/2001/REC-SVG-20010904/DTD/svg10.dtd">
<svg version="1.0" xmlns="http://www.w3.org/2000/svg"
 width="395.000000pt" height="395.000000pt" viewBox="0 0 395.000000 395.000000"
 preserveAspectRatio="xMidYMid meet">
<metadata>
Created by potrace 1.11, written by Peter Selinger 2001-2013
</metadata>
<g transform="translate(0.000000,395.000000) scale(0.100000,-0.100000)"
fill="#000000" stroke="none">
<path d="M1808 3865 c-99 -15 -215 -56 -258 -91 -16 -14 -43 -30 -62 -36 -41
-14 -140 -88 -135 -101 1 -5 -25 -37 -59 -71 -74 -73 -162 -187 -181 -236 -8
-19 -23 -54 -34 -77 -10 -24 -19 -45 -19 -49 0 -3 -12 -30 -26 -60 -16 -34
-23 -62 -19 -76 4 -13 3 -18 -2 -12 -4 7 -9 -34 -11 -90 -6 -222 -7 -354 -1
-350 8 4 25 -85 35 -174 4 -35 13 -69 20 -77 8 -8 14 -36 14 -67 1 -29 8 -71
17 -93 10 -26 15 -65 14 -110 -2 -86 9 -103 66 -107 40 -2 43 -4 56 -42 8 -23
32 -68 53 -100 21 -33 49 -78 62 -100 13 -23 37 -58 53 -79 17 -21 29 -39 28
-40 -2 -1 -42 -20 -89 -42 -47 -22 -114 -63 -149 -91 -57 -47 -168 -172 -192
-217 -6 -9 -42 -33 -82 -53 -40 -20 -73 -38 -75 -39 -2 -2 1 -12 7 -23 9 -18
7 -22 -12 -27 -21 -7 -47 -17 -123 -50 -17 -7 -52 -32 -79 -55 -26 -23 -58
-48 -71 -57 -13 -8 -24 -19 -24 -25 0 -5 -22 -35 -48 -67 -31 -37 -53 -75 -61
-107 -7 -27 -30 -101 -51 -164 -20 -63 -45 -149 -55 -190 -10 -41 -39 -151
-65 -245 l-47 -170 1780 -3 c979 -1 1782 -1 1784 1 7 8 -22 135 -72 307 -29
102 -57 203 -61 225 -8 47 -65 213 -98 288 -12 28 -47 78 -76 110 -105 115
-206 177 -344 211 -34 8 -52 19 -57 33 -4 11 -19 23 -33 27 -70 17 -132 71
-206 177 -49 70 -149 150 -246 196 -52 24 -94 48 -94 53 0 5 8 17 19 27 48 46
116 177 166 323 12 36 27 66 34 66 6 1 15 2 21 3 17 2 50 44 50 65 0 10 -11
38 -25 62 l-25 43 19 33 c29 51 61 164 61 220 0 35 9 68 32 116 29 59 32 76
32 147 -1 70 -1 74 6 30 l7 -50 1 45 c0 25 -3 68 -8 95 -4 28 -15 102 -25 165
-20 132 -54 239 -91 283 -14 16 -37 53 -51 81 -14 28 -40 71 -57 96 -18 25
-40 66 -49 91 -12 32 -26 51 -45 58 -15 7 -40 29 -56 50 -15 21 -40 45 -55 52
-14 7 -39 24 -55 37 -117 95 -339 132 -578 97z m-711 -1657 c-3 -8 -6 -5 -6 6
-1 11 2 17 5 13 3 -3 4 -12 1 -19z"/>
</g>
</svg>
